<?xml version="1.0" encoding="UTF-8" standalone="no"?>
<!-- Created with Inkscape (http://www.inkscape.org/) -->

<svg
   xmlns:dc="http://purl.org/dc/elements/1.1/"
   xmlns:cc="http://creativecommons.org/ns#"
   xmlns:rdf="http://www.w3.org/1999/02/22-rdf-syntax-ns#"
   xmlns:svg="http://www.w3.org/2000/svg"
   xmlns="http://www.w3.org/2000/svg"
   xmlns:sodipodi="http://sodipodi.sourceforge.net/DTD/sodipodi-0.dtd"
   xmlns:inkscape="http://www.inkscape.org/namespaces/inkscape"
   width="36"
   height="36.001503"
   viewBox="0 0 9.5249996 9.5253972"
   version="1.1"
   id="svg16908"
   inkscape:version="0.92.2 (5c3e80d, 2017-08-06)"
   sodipodi:docname="GreenBlueSmall.svg">
  <defs
     id="defs16902">
    <clipPath
       clipPathUnits="userSpaceOnUse"
       id="clipPath6367">
      <path
         d="M 0,3193 H 2089 V 0 H 0 Z"
         id="path6365"
         inkscape:connector-curvature="0" />
    </clipPath>
  </defs>
  <sodipodi:namedview
     id="base"
     pagecolor="#ffffff"
     bordercolor="#666666"
     borderopacity="1.0"
     inkscape:pageopacity="0.0"
     inkscape:pageshadow="2"
     inkscape:zoom="8"
     inkscape:cx="2.2480544"
     inkscape:cy="25.161006"
     inkscape:document-units="mm"
     inkscape:current-layer="layer1"
     showgrid="false"
     fit-margin-top="0"
     fit-margin-left="0"
     fit-margin-right="0"
     fit-margin-bottom="0"
     inkscape:window-width="1920"
     inkscape:window-height="1033"
     inkscape:window-x="-4"
     inkscape:window-y="-4"
     inkscape:window-maximized="1"
     inkscape:measure-start="0,0"
     inkscape:measure-end="0,0"
     showguides="true"
     inkscape:guide-bbox="true"
     units="px" />
  <metadata
     id="metadata16905">
    <rdf:RDF>
      <cc:Work
         rdf:about="">
        <dc:format>image/svg+xml</dc:format>
        <dc:type
           rdf:resource="http://purl.org/dc/dcmitype/StillImage" />
        <dc:title></dc:title>
      </cc:Work>
    </rdf:RDF>
  </metadata>
  <g
     inkscape:label="Layer 1"
     inkscape:groupmode="layer"
     id="layer1"
     transform="translate(-230.09585,-123.23243)">
    <path
       style="fill:#0a2d2d;fill-opacity:1;fill-rule:evenodd;stroke:none;stroke-width:0.16803648;stroke-miterlimit:4;stroke-dasharray:none;stroke-opacity:1"
       d="m 239.61613,127.99562 a 4.7601376,4.7622046 0 0 1 -4.76014,4.76221 4.7601376,4.7622046 0 0 1 -4.76014,-4.76221 4.7601376,4.7622046 0 0 1 4.76014,-4.7622 4.7601376,4.7622046 0 0 1 4.76014,4.7622 z"
       id="path821" />
    <path
       style="fill:#016972;fill-opacity:1;fill-rule:evenodd;stroke:none;stroke-width:0.164552;stroke-miterlimit:4;stroke-dasharray:none;stroke-opacity:1"
       d="m 239.19296,128.00084 a 4.3377838,4.3391857 0 0 1 -4.33778,4.33918 4.3377838,4.3391857 0 0 1 -4.33778,-4.33918 4.3377838,4.3391857 0 0 1 4.33778,-4.33919 4.3377838,4.3391857 0 0 1 4.33778,4.33919 z"
       id="path827" />
    <path
       style="fill:#000810;fill-opacity:1;fill-rule:evenodd;stroke:none;stroke-width:0.15351444;stroke-miterlimit:4;stroke-dasharray:none;stroke-opacity:1"
       d="m 238.89799,127.97702 a 4.0468211,4.0481286 0 0 1 -4.04682,4.04813 4.0468211,4.0481286 0 0 1 -4.04683,-4.04813 4.0468211,4.0481286 0 0 1 4.04683,-4.04813 4.0468211,4.0481286 0 0 1 4.04682,4.04813 z"
       id="path827-6" />
    <path
       style="fill:#0a2e2e;fill-opacity:1;fill-rule:evenodd;stroke:none;stroke-width:0.168;stroke-miterlimit:4;stroke-dasharray:none;stroke-opacity:1"
       d="m 237.87707,128.01216 a 3.0401909,3.0401909 0 0 1 -3.04019,3.04019 3.0401909,3.0401909 0 0 1 -3.04019,-3.04019 3.0401909,3.0401909 0 0 1 3.04019,-3.04019 3.0401909,3.0401909 0 0 1 3.04019,3.04019 z"
       id="path829" />
    <path
       style="fill:#1fc0d2;fill-opacity:1;fill-rule:evenodd;stroke:none;stroke-width:0.11956863;stroke-miterlimit:4;stroke-dasharray:none;stroke-opacity:1"
       d="m 236.98903,128.02634 a 2.1637588,2.1637588 0 0 1 -2.16376,2.16376 2.1637588,2.1637588 0 0 1 -2.16376,-2.16376 2.1637588,2.1637588 0 0 1 2.16376,-2.16376 2.1637588,2.1637588 0 0 1 2.16376,2.16376 z"
       id="path829-3" />
    <path
       style="fill:#ffffff;fill-opacity:1;fill-rule:evenodd;stroke:none;stroke-width:0.17590769;stroke-miterlimit:4;stroke-dasharray:none;stroke-opacity:1"
       d="m 234.61238,123.23283 h 0.48781 v 4.7625 h -0.48781 z"
       id="rect837" />
    <path
       style="fill:#a3a4a4;fill-opacity:1;fill-rule:evenodd;stroke:none;stroke-width:0.05315959;stroke-miterlimit:4;stroke-dasharray:none;stroke-opacity:1"
       d="m 234.61238,123.23283 h 0.48781 v 0.43494 h -0.48781 z"
       id="rect837-9" />
    <path
       style="fill:#a3a4a4;fill-opacity:1;fill-rule:evenodd;stroke:none;stroke-width:0.07629486;stroke-miterlimit:4;stroke-dasharray:none;stroke-opacity:1"
       d="m 234.61101,124.98186 h 0.4878 v 0.89589 h -0.4878 z"
       id="rect837-9-6" />
  </g>
</svg>
