<?xml version="1.0" encoding="UTF-8" standalone="no"?>
<!-- Created with Inkscape (http://www.inkscape.org/) -->

<svg
   xmlns:dc="http://purl.org/dc/elements/1.1/"
   xmlns:cc="http://creativecommons.org/ns#"
   xmlns:rdf="http://www.w3.org/1999/02/22-rdf-syntax-ns#"
   xmlns:svg="http://www.w3.org/2000/svg"
   xmlns="http://www.w3.org/2000/svg"
   xmlns:sodipodi="http://sodipodi.sourceforge.net/DTD/sodipodi-0.dtd"
   xmlns:inkscape="http://www.inkscape.org/namespaces/inkscape"
   width="30"
   height="30"
   viewBox="0 0 7.9374997 7.9375002"
   version="1.1"
   id="svg8"
   inkscape:version="0.92.2 (5c3e80d, 2017-08-06)"
   sodipodi:docname="GreenBlueSmall.svg">
  <defs
     id="defs2" />
  <sodipodi:namedview
     id="base"
     pagecolor="#ffffff"
     bordercolor="#666666"
     borderopacity="1.0"
     inkscape:pageopacity="0.0"
     inkscape:pageshadow="2"
     inkscape:zoom="11.313709"
     inkscape:cx="24.050092"
     inkscape:cy="7.9211094"
     inkscape:document-units="mm"
     inkscape:current-layer="layer1"
     showgrid="false"
     units="px"
     inkscape:window-width="1920"
     inkscape:window-height="1033"
     inkscape:window-x="-4"
     inkscape:window-y="-4"
     inkscape:window-maximized="1" />
  <metadata
     id="metadata5">
    <rdf:RDF>
      <cc:Work
         rdf:about="">
        <dc:format>image/svg+xml</dc:format>
        <dc:type
           rdf:resource="http://purl.org/dc/dcmitype/StillImage" />
        <dc:title></dc:title>
      </cc:Work>
    </rdf:RDF>
  </metadata>
  <g
     inkscape:label="Ebene 1"
     inkscape:groupmode="layer"
     id="layer1"
     transform="translate(0,-289.06249)">
    <path
       style="fill:#2f3030;fill-opacity:1;fill-rule:evenodd;stroke:none;stroke-width:0.13998799;stroke-miterlimit:4;stroke-dasharray:none;stroke-opacity:1"
       d="m 7.9334561,293.03321 a 3.9663557,3.9665277 0 0 1 -3.9663587,3.96652 3.9663557,3.9665277 0 0 1 -3.966358332,-3.96652 3.9663557,3.9665277 0 0 1 3.966358332,-3.96652 3.9663557,3.9665277 0 0 1 3.9663587,3.96652 z"
       id="path821"
       inkscape:connector-curvature="0" />
    <path
       style="fill:#a1a1a1;fill-opacity:1;fill-rule:evenodd;stroke:none;stroke-width:0.13708515;stroke-miterlimit:4;stroke-dasharray:none;stroke-opacity:1"
       d="m 7.5808486,293.03754 a 3.6144319,3.6141875 0 0 1 -3.6144294,3.61419 3.6144319,3.6141875 0 0 1 -3.61442313,-3.61419 3.6144319,3.6141875 0 0 1 3.61442313,-3.61419 3.6144319,3.6141875 0 0 1 3.6144294,3.61419 z"
       id="path827"
       inkscape:connector-curvature="0" />
    <path
       style="fill:#020202;fill-opacity:1;fill-rule:evenodd;stroke:none;stroke-width:0.12788999;stroke-miterlimit:4;stroke-dasharray:none;stroke-opacity:1"
       d="m 7.3350711,293.01772 a 3.3719892,3.3717607 0 0 1 -3.3719915,3.37176 3.3719892,3.3717607 0 0 1 -3.37199831,-3.37176 3.3719892,3.3717607 0 0 1 3.37199831,-3.37178 3.3719892,3.3717607 0 0 1 3.3719915,3.37178 z"
       id="path827-6"
       inkscape:connector-curvature="0" />
    <path
       style="fill:#2e2e2e;fill-opacity:1;fill-rule:evenodd;stroke:none;stroke-width:0.13995765;stroke-miterlimit:4;stroke-dasharray:none;stroke-opacity:1"
       d="m 6.4843926,293.04698 a 2.5332205,2.5322308 0 0 1 -2.5332171,2.53221 2.5332205,2.5322308 0 0 1 -2.5332238,-2.53221 2.5332205,2.5322308 0 0 1 2.5332238,-2.53223 2.5332205,2.5322308 0 0 1 2.5332171,2.53223 z"
       id="path829"
       inkscape:connector-curvature="0" />
    <path
       style="fill:#a1a1a1;fill-opacity:1;fill-rule:evenodd;stroke:none;stroke-width:0.09961038;stroke-miterlimit:4;stroke-dasharray:none;stroke-opacity:1"
       d="m 5.7444383,293.05877 a 1.8029388,1.8022343 0 0 1 -1.8029358,1.80226 1.8029388,1.8022343 0 0 1 -1.8029424,-1.80226 1.8029388,1.8022343 0 0 1 1.8029424,-1.80223 1.8029388,1.8022343 0 0 1 1.8029358,1.80223 z"
       id="path829-3"
       inkscape:connector-curvature="0" />
    <path
       style="fill:#ffffff;fill-opacity:1;fill-rule:evenodd;stroke:none;stroke-width:0.16716543;stroke-miterlimit:4;stroke-dasharray:none;stroke-opacity:1"
       d="m 3.7001411,289.06619 h 0.5288991 v 3.96678 H 3.7001411 Z"
       id="rect837"
       inkscape:connector-curvature="0" />
    <path
       style="fill:#a3a4a4;fill-opacity:1;fill-rule:evenodd;stroke:none;stroke-width:0.05051768;stroke-miterlimit:4;stroke-dasharray:none;stroke-opacity:1"
       d="m 3.7001411,289.06619 h 0.5288991 v 0.36226 H 3.7001411 Z"
       id="rect837-9"
       inkscape:connector-curvature="0" />
    <path
       style="fill:#a3a4a4;fill-opacity:1;fill-rule:evenodd;stroke:none;stroke-width:0.07250315;stroke-miterlimit:4;stroke-dasharray:none;stroke-opacity:1"
       d="m 3.6986561,290.52299 h 0.5288905 v 0.74619 H 3.6986561 Z"
       id="rect837-9-6"
       inkscape:connector-curvature="0" />
  </g>
</svg>
