<?xml version="1.0" encoding="UTF-8" standalone="no"?>
<!-- Created with Inkscape (http://www.inkscape.org/) -->

<svg
   xmlns:dc="http://purl.org/dc/elements/1.1/"
   xmlns:cc="http://creativecommons.org/ns#"
   xmlns:rdf="http://www.w3.org/1999/02/22-rdf-syntax-ns#"
   xmlns:svg="http://www.w3.org/2000/svg"
   xmlns="http://www.w3.org/2000/svg"
   xmlns:sodipodi="http://sodipodi.sourceforge.net/DTD/sodipodi-0.dtd"
   xmlns:inkscape="http://www.inkscape.org/namespaces/inkscape"
   width="46"
   height="46"
   viewBox="0 0 12.170833 12.170833"
   version="1.1"
   id="svg16908"
   inkscape:version="0.92.2 (5c3e80d, 2017-08-06)"
   sodipodi:docname="GreenBlueLarge.svg">
  <defs
     id="defs16902">
    <clipPath
       clipPathUnits="userSpaceOnUse"
       id="clipPath6367">
      <path
         d="M 0,3193 H 2089 V 0 H 0 Z"
         id="path6365"
         inkscape:connector-curvature="0" />
    </clipPath>
  </defs>
  <sodipodi:namedview
     id="base"
     pagecolor="#ffffff"
     bordercolor="#666666"
     borderopacity="1.0"
     inkscape:pageopacity="0.0"
     inkscape:pageshadow="2"
     inkscape:zoom="5.6568543"
     inkscape:cx="6.2380987"
     inkscape:cy="20.505661"
     inkscape:document-units="mm"
     inkscape:current-layer="layer1"
     showgrid="false"
     fit-margin-top="0"
     fit-margin-left="0"
     fit-margin-right="0"
     fit-margin-bottom="0"
     inkscape:window-width="1920"
     inkscape:window-height="1033"
     inkscape:window-x="-4"
     inkscape:window-y="-4"
     inkscape:window-maximized="1"
     inkscape:measure-start="0,0"
     inkscape:measure-end="0,0"
     showguides="true"
     inkscape:guide-bbox="true"
     units="px" />
  <metadata
     id="metadata16905">
    <rdf:RDF>
      <cc:Work
         rdf:about="">
        <dc:format>image/svg+xml</dc:format>
        <dc:type
           rdf:resource="http://purl.org/dc/dcmitype/StillImage" />
        <dc:title></dc:title>
      </cc:Work>
    </rdf:RDF>
  </metadata>
  <g
     inkscape:label="Layer 1"
     inkscape:groupmode="layer"
     id="layer1"
     transform="translate(-230.09585,-120.58699)">
    <path
       style="fill:#2f3030;fill-opacity:1;fill-rule:evenodd;stroke:none;stroke-width:0.21465671;stroke-miterlimit:4;stroke-dasharray:none;stroke-opacity:1"
       d="m 242.25745,126.67439 a 6.0807959,6.0834364 0 0 1 -6.0808,6.08344 6.0807959,6.0834364 0 0 1 -6.0808,-6.08344 6.0807959,6.0834364 0 0 1 6.0808,-6.08343 6.0807959,6.0834364 0 0 1 6.0808,6.08343 z"
       id="path821"
       inkscape:connector-curvature="0" />
    <path
       style="fill:#a1a1a1;fill-opacity:1;fill-rule:evenodd;stroke:none;stroke-width:0.21020551;stroke-miterlimit:4;stroke-dasharray:none;stroke-opacity:1"
       d="m 241.71687,126.68105 a 5.5412638,5.5430546 0 0 1 -5.54126,5.54305 5.5412638,5.5430546 0 0 1 -5.54125,-5.54305 5.5412638,5.5430546 0 0 1 5.54125,-5.54306 5.5412638,5.5430546 0 0 1 5.54126,5.54306 z"
       id="path827"
       inkscape:connector-curvature="0" />
    <path
       style="fill:#020202;fill-opacity:1;fill-rule:evenodd;stroke:none;stroke-width:0.19610567;stroke-miterlimit:4;stroke-dasharray:none;stroke-opacity:1"
       d="m 241.34007,126.65063 a 5.169576,5.1712463 0 0 1 -5.16958,5.17124 5.169576,5.1712463 0 0 1 -5.16959,-5.17124 5.169576,5.1712463 0 0 1 5.16959,-5.17125 5.169576,5.1712463 0 0 1 5.16958,5.17125 z"
       id="path827-6"
       inkscape:connector-curvature="0" />
    <path
       style="fill:#2e2e2e;fill-opacity:1;fill-rule:evenodd;stroke:none;stroke-width:0.21461011;stroke-miterlimit:4;stroke-dasharray:none;stroke-opacity:1"
       d="m 240.0359,126.69552 a 3.8836651,3.8836651 0 0 1 -3.88366,3.88366 3.8836651,3.8836651 0 0 1 -3.88367,-3.88366 3.8836651,3.8836651 0 0 1 3.88367,-3.88367 3.8836651,3.8836651 0 0 1 3.88366,3.88367 z"
       id="path829"
       inkscape:connector-curvature="0" />
    <path
       style="fill:#a1a1a1;fill-opacity:1;fill-rule:evenodd;stroke:none;stroke-width:0.15274189;stroke-miterlimit:4;stroke-dasharray:none;stroke-opacity:1"
       d="m 238.90148,126.71363 a 2.7640746,2.7640746 0 0 1 -2.76407,2.76408 2.7640746,2.7640746 0 0 1 -2.76408,-2.76408 2.7640746,2.7640746 0 0 1 2.76408,-2.76408 2.7640746,2.7640746 0 0 1 2.76407,2.76408 z"
       id="path829-3"
       inkscape:connector-curvature="0" />
    <path
       style="fill:#ffffff;fill-opacity:1;fill-rule:evenodd;stroke:none;stroke-width:0.22471173;stroke-miterlimit:4;stroke-dasharray:none;stroke-opacity:1"
       d="m 235.86545,120.5902 h 0.62315 v 6.08382 h -0.62315 z"
       id="rect837"
       inkscape:connector-curvature="0" />
    <path
       style="fill:#a3a4a4;fill-opacity:1;fill-rule:evenodd;stroke:none;stroke-width:0.06790825;stroke-miterlimit:4;stroke-dasharray:none;stroke-opacity:1"
       d="m 235.86545,120.5902 h 0.62315 v 0.55561 h -0.62315 z"
       id="rect837-9"
       inkscape:connector-curvature="0" />
    <path
       style="fill:#a3a4a4;fill-opacity:1;fill-rule:evenodd;stroke:none;stroke-width:0.0974622;stroke-miterlimit:4;stroke-dasharray:none;stroke-opacity:1"
       d="m 235.8637,122.82449 h 0.62314 v 1.14444 h -0.62314 z"
       id="rect837-9-6"
       inkscape:connector-curvature="0" />
  </g>
</svg>
