<?xml version="1.0" encoding="UTF-8" standalone="no"?>
<!-- Created with Inkscape (http://www.inkscape.org/) -->

<svg
   xmlns:dc="http://purl.org/dc/elements/1.1/"
   xmlns:cc="http://creativecommons.org/ns#"
   xmlns:rdf="http://www.w3.org/1999/02/22-rdf-syntax-ns#"
   xmlns:svg="http://www.w3.org/2000/svg"
   xmlns="http://www.w3.org/2000/svg"
   xmlns:sodipodi="http://sodipodi.sourceforge.net/DTD/sodipodi-0.dtd"
   xmlns:inkscape="http://www.inkscape.org/namespaces/inkscape"
   width="16mm"
   height="100mm"
   viewBox="0 0 16 100"
   version="1.1"
   id="svg8"
   inkscape:version="0.92.2 (5c3e80d, 2017-08-06)"
   sodipodi:docname="Random Source.svg">
  <defs
     id="defs2" />
  <sodipodi:namedview
     id="base"
     pagecolor="#ffffff"
     bordercolor="#666666"
     borderopacity="1.0"
     inkscape:pageopacity="0.0"
     inkscape:pageshadow="2"
     inkscape:zoom="1.4142136"
     inkscape:cx="-42.72551"
     inkscape:cy="202.23194"
     inkscape:document-units="mm"
     inkscape:current-layer="layer1"
     showgrid="false"
     inkscape:window-width="1920"
     inkscape:window-height="1033"
     inkscape:window-x="-4"
     inkscape:window-y="-4"
     inkscape:window-maximized="1"
     showguides="true"
     inkscape:guide-bbox="true" />
  <metadata
     id="metadata5">
    <rdf:RDF>
      <cc:Work
         rdf:about="">
        <dc:format>image/svg+xml</dc:format>
        <dc:type
           rdf:resource="http://purl.org/dc/dcmitype/StillImage" />
        <dc:title />
      </cc:Work>
    </rdf:RDF>
  </metadata>
  <g
     inkscape:label="Ebene 1"
     inkscape:groupmode="layer"
     id="layer1"
     transform="translate(0,-197)">
    <path
       style="fill:#eeeeee;fill-opacity:1;fill-rule:evenodd;stroke:none;stroke-width:0.06285989;stroke-miterlimit:4;stroke-dasharray:none;stroke-opacity:1"
       d="M -2.0290964e-4,196.99997 H 15.999797 v 100 H -2.0290964e-4 Z"
       id="rect817"
       inkscape:connector-curvature="0" />
    <flowRoot
       xml:space="preserve"
       id="flowRoot858"
       style="fill:black;fill-opacity:1;stroke:none;font-family:sans-serif;font-style:normal;font-weight:normal;font-size:40px;line-height:1.25;letter-spacing:0px;word-spacing:0px"><flowRegion
         id="flowRegion860"><rect
           id="rect862"
           width="29.5"
           height="176.5"
           x="-118.5"
           y="330.45276" /></flowRegion><flowPara
         id="flowPara864" /></flowRoot>    <flowRoot
       xml:space="preserve"
       id="flowRoot833"
       style="fill:black;fill-opacity:1;stroke:none;font-family:sans-serif;font-style:normal;font-weight:normal;font-size:40px;line-height:1.25;letter-spacing:0px;word-spacing:0px"><flowRegion
         id="flowRegion835"><rect
           id="rect837"
           width="101.99999"
           height="45.499996"
           x="-29.499998"
           y="71.452774" /></flowRegion><flowPara
         id="flowPara839" /></flowRoot>    <g
       aria-label="SH OUT "
       style="font-style:normal;font-weight:normal;font-size:3.52777767px;line-height:1.25;font-family:sans-serif;text-align:center;letter-spacing:0px;word-spacing:0px;text-anchor:middle;fill:#000000;fill-opacity:1;stroke:none;stroke-width:0.26458332"
       id="text850"
       transform="matrix(1.2833276,0,0,1.2833276,-2.2182631,-87.985721)">
      <path
         d="m 7.3595209,273.91662 q -0.1920641,-0.0732 -0.2601047,-0.15331 -0.068041,-0.081 -0.068041,-0.21704 0,-0.17484 0.1119656,-0.27474 0.1119656,-0.0999 0.3074748,-0.0999 0.088711,0 0.1774224,0.0207 0.088711,0.0198 0.1756999,0.0594 v 0.24804 q -0.081821,-0.0577 -0.1662259,-0.0879 -0.084405,-0.0301 -0.1670871,-0.0301 -0.092156,0 -0.1412489,0.037 -0.049093,0.037 -0.049093,0.10594 0,0.0534 0.035312,0.0887 0.036173,0.0344 0.1498617,0.0767 l 0.1093817,0.0413 q 0.1550293,0.0568 0.2282376,0.15072 0.073208,0.0939 0.073208,0.23685 0,0.19465 -0.1154107,0.29111 -0.1145494,0.0956 -0.3470934,0.0956 -0.095601,0 -0.192064,-0.0233 -0.095601,-0.0224 -0.1851739,-0.0672 v -0.26269 q 0.1016303,0.0724 0.1963704,0.10766 0.095601,0.0353 0.188619,0.0353 0.093879,0 0.1455553,-0.0422 0.051676,-0.0431 0.051676,-0.11972 0,-0.0577 -0.034451,-0.10077 -0.034451,-0.0439 -0.099908,-0.0689 z"
         style="font-style:normal;font-variant:normal;font-weight:bold;font-stretch:normal;font-size:1.76388884px;font-family:'DejaVu Sans Mono';-inkscape-font-specification:'DejaVu Sans Mono Bold';text-align:center;text-anchor:middle;stroke-width:0.26458332"
         id="path912"
         inkscape:connector-curvature="0" />
      <path
         d="m 8.0993551,273.19487 h 0.2540758 v 0.49007 H 8.671241 v -0.49007 h 0.2540757 v 1.28589 H 8.671241 v -0.57189 H 8.3534309 v 0.57189 H 8.0993551 Z"
         style="font-style:normal;font-variant:normal;font-weight:bold;font-stretch:normal;font-size:1.76388884px;font-family:'DejaVu Sans Mono';-inkscape-font-specification:'DejaVu Sans Mono Bold';text-align:center;text-anchor:middle;stroke-width:0.26458332"
         id="path914"
         inkscape:connector-curvature="0" />
    </g>
    <g
       aria-label="CLOCK "
       style="font-style:normal;font-weight:normal;font-size:3.52777767px;line-height:1.25;font-family:sans-serif;text-align:center;letter-spacing:0px;word-spacing:0px;text-anchor:middle;fill:#000000;fill-opacity:1;stroke:none;stroke-width:0.26458332"
       id="text850-6-8"
       transform="matrix(1.3257805,0,0,1.3257805,-2.6156038,-95.625458)">
      <path
         d="m 6.2222728,262.48164 q -0.060289,0.031 -0.1266072,0.0465 -0.066318,0.0155 -0.1395264,0.0155 -0.2601047,0 -0.3970472,-0.17139 -0.1369426,-0.17139 -0.1369426,-0.49523 0,-0.3247 0.1369426,-0.4961 0.1369425,-0.17139 0.3970472,-0.17139 0.073208,0 0.1403876,0.0155 0.067179,0.0155 0.125746,0.0465 v 0.2825 q -0.065457,-0.0603 -0.1274685,-0.0879 -0.061151,-0.0284 -0.1266073,-0.0284 -0.1395263,0 -0.2110121,0.1111 -0.070624,0.11025 -0.070624,0.32815 0,0.21704 0.070624,0.32814 0.071486,0.11025 0.2110121,0.11025 0.065457,0 0.1266073,-0.0276 0.062012,-0.0284 0.1274685,-0.0887 z"
         style="font-style:normal;font-variant:normal;font-weight:bold;font-stretch:normal;font-size:1.76388884px;font-family:'DejaVu Sans Mono';-inkscape-font-specification:'DejaVu Sans Mono Bold';text-align:center;text-anchor:middle;stroke-width:0.26458332"
         id="path900"
         inkscape:connector-curvature="0" />
      <path
         d="m 6.5461118,262.51868 v -1.28589 h 0.2540758 v 1.06196 h 0.5434638 v 0.22393 z"
         style="font-style:normal;font-variant:normal;font-weight:bold;font-stretch:normal;font-size:1.76388884px;font-family:'DejaVu Sans Mono';-inkscape-font-specification:'DejaVu Sans Mono Bold';text-align:center;text-anchor:middle;stroke-width:0.26458332"
         id="path902"
         inkscape:connector-curvature="0" />
      <path
         d="m 7.9439593,261.43778 q -0.097324,0 -0.1421102,0.10421 -0.044786,0.10336 -0.044786,0.33504 0,0.23082 0.044786,0.33503 0.044786,0.10336 0.1421102,0.10336 0.098185,0 0.1429714,-0.10336 0.044786,-0.10421 0.044786,-0.33503 0,-0.23168 -0.044786,-0.33504 -0.044786,-0.10421 -0.1429714,-0.10421 z m -0.4513075,0.43925 q 0,-0.32987 0.1136881,-0.49868 0.1145494,-0.16881 0.3376194,-0.16881 0.2239312,0 0.3376193,0.16881 0.1145494,0.16881 0.1145494,0.49868 0,0.329 -0.1145494,0.49781 -0.1136881,0.16881 -0.3376193,0.16881 -0.22307,0 -0.3376194,-0.16881 -0.1136881,-0.16881 -0.1136881,-0.49781 z"
         style="font-style:normal;font-variant:normal;font-weight:bold;font-stretch:normal;font-size:1.76388884px;font-family:'DejaVu Sans Mono';-inkscape-font-specification:'DejaVu Sans Mono Bold';text-align:center;text-anchor:middle;stroke-width:0.26458332"
         id="path904"
         inkscape:connector-curvature="0" />
      <path
         d="m 9.4055409,262.48164 q -0.060289,0.031 -0.1266073,0.0465 -0.066318,0.0155 -0.1395263,0.0155 -0.2601047,0 -0.3970473,-0.17139 -0.1369425,-0.17139 -0.1369425,-0.49523 0,-0.3247 0.1369425,-0.4961 0.1369426,-0.17139 0.3970473,-0.17139 0.073208,0 0.1403876,0.0155 0.067179,0.0155 0.125746,0.0465 v 0.2825 q -0.065457,-0.0603 -0.1274685,-0.0879 -0.061151,-0.0284 -0.1266073,-0.0284 -0.1395264,0 -0.2110121,0.1111 -0.070624,0.11025 -0.070624,0.32815 0,0.21704 0.070624,0.32814 0.071486,0.11025 0.2110121,0.11025 0.065457,0 0.1266073,-0.0276 0.062012,-0.0284 0.1274685,-0.0887 z"
         style="font-style:normal;font-variant:normal;font-weight:bold;font-stretch:normal;font-size:1.76388884px;font-family:'DejaVu Sans Mono';-inkscape-font-specification:'DejaVu Sans Mono Bold';text-align:center;text-anchor:middle;stroke-width:0.26458332"
         id="path906"
         inkscape:connector-curvature="0" />
      <path
         d="m 9.6363624,261.23279 h 0.2540758 v 0.50816 l 0.3979088,-0.50816 h 0.287665 l -0.40566,0.50643 0.420302,0.77946 h -0.282498 l -0.304891,-0.57878 -0.1128268,0.14297 v 0.43581 H 9.6363624 Z"
         style="font-style:normal;font-variant:normal;font-weight:bold;font-stretch:normal;font-size:1.76388884px;font-family:'DejaVu Sans Mono';-inkscape-font-specification:'DejaVu Sans Mono Bold';text-align:center;text-anchor:middle;stroke-width:0.26458332"
         id="path908"
         inkscape:connector-curvature="0" />
    </g>
    <g
       aria-label="IN "
       style="font-style:normal;font-weight:normal;font-size:3.52777767px;line-height:1.25;font-family:sans-serif;text-align:center;letter-spacing:0px;word-spacing:0px;text-anchor:middle;fill:#000000;fill-opacity:1;stroke:none;stroke-width:0.26458332"
       id="text850-6-8-2"
       transform="matrix(1.3500374,0,0,1.3500374,-2.9853526,-98.121922)">
      <path
         d="m 7.2266905,249.71581 v -0.22394 H 7.992363 v 0.22394 H 7.7365646 v 0.83801 H 7.992363 v 0.22394 H 7.2266905 v -0.22394 h 0.2557984 v -0.83801 z"
         style="font-style:normal;font-variant:normal;font-weight:bold;font-stretch:normal;font-size:1.76388884px;font-family:'DejaVu Sans Mono';-inkscape-font-specification:'DejaVu Sans Mono Bold';text-align:center;text-anchor:middle;stroke-width:0.26458332"
         id="path895"
         inkscape:connector-curvature="0" />
      <path
         d="m 8.2421324,249.49187 h 0.2730238 l 0.3582899,0.93449 v -0.93449 h 0.2239312 v 1.28589 H 8.8260761 l -0.3600125,-0.93449 v 0.93449 H 8.2421324 Z"
         style="font-style:normal;font-variant:normal;font-weight:bold;font-stretch:normal;font-size:1.76388884px;font-family:'DejaVu Sans Mono';-inkscape-font-specification:'DejaVu Sans Mono Bold';text-align:center;text-anchor:middle;stroke-width:0.26458332"
         id="path897"
         inkscape:connector-curvature="0" />
    </g>
    <g
       aria-label="NOISE "
       style="font-style:normal;font-weight:normal;font-size:3.52777767px;line-height:1.25;font-family:sans-serif;text-align:center;letter-spacing:0px;word-spacing:0px;text-anchor:middle;fill:#000000;fill-opacity:1;stroke:none;stroke-width:0.26458332"
       id="text850-6-7"
       transform="matrix(1.2671833,0,0,1.2671833,-1.8797656,-86.520313)">
      <path
         d="m 5.4074956,284.93409 h 0.2730238 l 0.3582899,0.93448 v -0.93448 h 0.2239312 v 1.28588 H 5.9914392 l -0.3600124,-0.93448 v 0.93448 H 5.4074956 Z"
         style="font-style:normal;font-variant:normal;font-weight:bold;font-stretch:normal;font-size:1.76388884px;font-family:'DejaVu Sans Mono';-inkscape-font-specification:'DejaVu Sans Mono Bold';text-align:center;text-anchor:middle;stroke-width:0.26458332"
         id="path873"
         inkscape:connector-curvature="0" />
      <path
         d="m 6.8966381,285.13907 q -0.097324,0 -0.1421102,0.10422 -0.044786,0.10335 -0.044786,0.33503 0,0.23082 0.044786,0.33504 0.044786,0.10335 0.1421102,0.10335 0.098185,0 0.1429714,-0.10335 0.044786,-0.10422 0.044786,-0.33504 0,-0.23168 -0.044786,-0.33503 -0.044786,-0.10422 -0.1429714,-0.10422 z m -0.4513075,0.43925 q 0,-0.32987 0.1136881,-0.49868 0.1145494,-0.16881 0.3376194,-0.16881 0.2239312,0 0.3376193,0.16881 0.1145494,0.16881 0.1145494,0.49868 0,0.32901 -0.1145494,0.49782 -0.1136881,0.16881 -0.3376193,0.16881 -0.22307,0 -0.3376194,-0.16881 -0.1136881,-0.16881 -0.1136881,-0.49782 z"
         style="font-style:normal;font-variant:normal;font-weight:bold;font-stretch:normal;font-size:1.76388884px;font-family:'DejaVu Sans Mono';-inkscape-font-specification:'DejaVu Sans Mono Bold';text-align:center;text-anchor:middle;stroke-width:0.26458332"
         id="path875"
         inkscape:connector-curvature="0" />
      <path
         d="m 7.5753219,285.15802 v -0.22393 h 0.7656724 v 0.22393 H 8.085196 v 0.83802 h 0.2557983 v 0.22393 H 7.5753219 v -0.22393 h 0.2557983 v -0.83802 z"
         style="font-style:normal;font-variant:normal;font-weight:bold;font-stretch:normal;font-size:1.76388884px;font-family:'DejaVu Sans Mono';-inkscape-font-specification:'DejaVu Sans Mono Bold';text-align:center;text-anchor:middle;stroke-width:0.26458332"
         id="path877"
         inkscape:connector-curvature="0" />
      <path
         d="m 8.9275217,285.65584 q -0.192064,-0.0732 -0.2601047,-0.15331 -0.068041,-0.081 -0.068041,-0.21704 0,-0.17484 0.1119656,-0.27475 0.1119656,-0.0999 0.3074747,-0.0999 0.088711,0 0.1774225,0.0207 0.088711,0.0198 0.1756998,0.0594 v 0.24805 q -0.081821,-0.0577 -0.1662258,-0.0879 -0.084405,-0.0301 -0.1670872,-0.0301 -0.092156,0 -0.1412489,0.037 -0.049093,0.037 -0.049093,0.10594 0,0.0534 0.035312,0.0887 0.036174,0.0344 0.1498616,0.0767 l 0.1093818,0.0413 q 0.1550293,0.0568 0.2282375,0.15073 0.073208,0.0939 0.073208,0.23685 0,0.19464 -0.1154107,0.29111 -0.1145494,0.0956 -0.3470933,0.0956 -0.095601,0 -0.1920641,-0.0233 -0.095601,-0.0224 -0.1851739,-0.0672 v -0.26268 q 0.1016303,0.0723 0.1963705,0.10765 0.095601,0.0353 0.1886189,0.0353 0.093879,0 0.1455553,-0.0422 0.051676,-0.0431 0.051676,-0.11971 0,-0.0577 -0.034451,-0.10077 -0.034451,-0.0439 -0.099908,-0.0689 z"
         style="font-style:normal;font-variant:normal;font-weight:bold;font-stretch:normal;font-size:1.76388884px;font-family:'DejaVu Sans Mono';-inkscape-font-specification:'DejaVu Sans Mono Bold';text-align:center;text-anchor:middle;stroke-width:0.26458332"
         id="path879"
         inkscape:connector-curvature="0" />
      <path
         d="M 10.49504,286.21997 H 9.6940556 v -1.28588 H 10.49504 v 0.22393 H 9.9481314 v 0.27733 h 0.4952326 v 0.22393 H 9.9481314 v 0.33676 H 10.49504 Z"
         style="font-style:normal;font-variant:normal;font-weight:bold;font-stretch:normal;font-size:1.76388884px;font-family:'DejaVu Sans Mono';-inkscape-font-specification:'DejaVu Sans Mono Bold';text-align:center;text-anchor:middle;stroke-width:0.26458332"
         id="path881"
         inkscape:connector-curvature="0" />
    </g>
    <g
       aria-label="MS"
       style="font-style:normal;font-weight:normal;font-size:10.58333302px;line-height:1.25;font-family:sans-serif;letter-spacing:0px;word-spacing:0px;fill:#949494;fill-opacity:1;stroke:none;stroke-width:0.26458332"
       id="text881"
       transform="translate(0,0.52916667)">
      <path
         d="m 0.55186528,213.81201 v -5.78776 l 3.30729152,3.30729 1.6536457,-1.65364 h 1.6536458 v 5.78776 H 4.6859796 v -3.30729 l -0.8268228,0.82682 -0.8268229,-0.82682 v 1.65364 z m 0.82682292,-5.78776 0.8268228,0.82682 h 4.9609373 v -0.82682 z m -0.82682292,7.44141 v -0.82683 H 3.8591568 v 0.82683 z"
         style="font-style:normal;font-variant:normal;font-weight:normal;font-stretch:normal;font-size:8.46666622px;font-family:stoNe;-inkscape-font-specification:stoNe;fill:#949494;fill-opacity:1;stroke-width:0.26458332"
         id="path854"
         inkscape:connector-curvature="0" />
      <path
         d="m 7.9932711,213.81201 v -0.82682 h 4.1341139 q 0,-0.82682 -0.826822,-0.82682 H 7.9932711 v -0.82683 q 0,-1.65364 1.6536457,-1.65364 h 4.9609372 v 0.82682 h -3.307291 q -0.826823,0 -0.826823,0.82682 h 2.480468 q 1.653646,0 1.653646,1.65365 v 0.82682 z m 0.00413,0.82682 v 0.82683 h 7.4414059 v -0.82683 z m -0.830957,-6.61458 0.00413,0.82269 H 14.61198 l -0.0041,-0.82269 z"
         style="font-style:normal;font-variant:normal;font-weight:normal;font-stretch:normal;font-size:8.46666622px;font-family:stoNe;-inkscape-font-specification:stoNe;fill:#949494;fill-opacity:1;stroke-width:0.26458332"
         id="path856"
         inkscape:connector-curvature="0" />
    </g>
    <g
       aria-label="random
source"
       transform="scale(1.1261461,0.88798427)"
       style="font-style:normal;font-weight:normal;font-size:11.91837883px;line-height:0.30000001;font-family:sans-serif;letter-spacing:0px;word-spacing:0px;fill:#000000;fill-opacity:1;stroke:none;stroke-width:0.29795945"
       id="text860">
      <path
         d="m 2.1861533,229.04779 q -0.083801,-0.0768 -0.1972817,-0.11522 -0.1117348,-0.0384 -0.2461658,-0.0384 -0.1623646,0 -0.2845745,0.0576 -0.1204641,0.0559 -0.1868067,0.16411 -0.041901,0.0663 -0.059359,0.16062 -0.015713,0.0943 -0.015713,0.28632 v 0.90086 H 0.68471694 v -1.95535 H 1.1962528 v 0.30377 q 0.075072,-0.1676 0.230453,-0.25838 0.1553813,-0.0925 0.3631381,-0.0925 0.1047514,0 0.2042652,0.0262 0.1012597,0.0245 0.1920442,0.0733 z"
         style="font-style:normal;font-variant:normal;font-weight:bold;font-stretch:normal;font-size:3.5755136px;line-height:0.01;font-family:'DejaVu Sans Mono';-inkscape-font-specification:'DejaVu Sans Mono Bold';stroke-width:0.29795945"
         id="path876" />
      <path
         d="m 3.549667,229.54536 q -0.2863204,0 -0.3998011,0.0733 -0.1134806,0.0733 -0.1134806,0.2514 0,0.13269 0.078564,0.21125 0.078564,0.0786 0.2129945,0.0786 0.2025193,0 0.3142541,-0.15189 0.1117348,-0.15364 0.1117348,-0.42774 v -0.0349 z m 0.7123094,-0.19728 v 1.1156 H 3.7539322 v -0.21823 q -0.09253,0.1292 -0.2374364,0.19903 -0.1449061,0.0698 -0.3194917,0.0698 -0.3334586,0 -0.5202652,-0.17633 -0.1850608,-0.17633 -0.1850608,-0.49233 0,-0.34219 0.2217238,-0.50455 0.2217237,-0.16411 0.6861215,-0.16411 h 0.3544088 v -0.0855 q 0,-0.12395 -0.090784,-0.18681 -0.089039,-0.0646 -0.2636243,-0.0646 -0.1833149,0 -0.3561547,0.0471 -0.1710939,0.0454 -0.3579005,0.14665 v -0.43647 q 0.169348,-0.0698 0.3439337,-0.103 0.1745856,-0.0332 0.3701215,-0.0332 0.4766187,0 0.6686629,0.19379 0.1937901,0.19379 0.1937901,0.6931 z"
         style="font-style:normal;font-variant:normal;font-weight:bold;font-stretch:normal;font-size:3.5755136px;line-height:0.01;font-family:'DejaVu Sans Mono';-inkscape-font-specification:'DejaVu Sans Mono Bold';stroke-width:0.29795945"
         id="path878" />
      <path
         d="m 6.3482746,229.19445 v 1.26923 H 5.8402304 v -1.19067 q 0,-0.21299 -0.061105,-0.30378 -0.059359,-0.0925 -0.1955359,-0.0925 -0.1379226,0 -0.218232,0.12396 -0.078563,0.12395 -0.078563,0.34393 v 1.11909 H 4.7787498 v -1.95535 H 5.286794 v 0.2933 q 0.054121,-0.16237 0.1850607,-0.2514 0.1309393,-0.089 0.316,-0.089 0.2775912,0 0.4190055,0.18506 0.1414144,0.18331 0.1414144,0.5482 z"
         style="font-style:normal;font-variant:normal;font-weight:bold;font-stretch:normal;font-size:3.5755136px;line-height:0.01;font-family:'DejaVu Sans Mono';-inkscape-font-specification:'DejaVu Sans Mono Bold';stroke-width:0.29795945"
         id="path880" />
      <path
         d="m 8.0103295,228.78592 v -1.03879 h 0.50979 v 2.71655 h -0.50979 v -0.28981 q -0.082055,0.16935 -0.2129945,0.2549 -0.1291934,0.0855 -0.3055248,0.0855 -0.3352044,0 -0.5202652,-0.26886 -0.1850608,-0.26886 -0.1850608,-0.7577 0,-0.49582 0.1868067,-0.76119 0.1885524,-0.26537 0.5359778,-0.26537 0.1571271,0 0.2810829,0.0821 0.1257016,0.0803 0.2199779,0.24268 z m -0.7123094,0.70532 q 0,0.28283 0.094276,0.44345 0.094276,0.16062 0.2601325,0.16062 0.1658564,0 0.2618785,-0.16062 0.096022,-0.16062 0.096022,-0.44345 0,-0.28283 -0.096022,-0.44345 -0.096022,-0.16061 -0.2618785,-0.16061 -0.1658563,0 -0.2601325,0.16061 -0.094276,0.16062 -0.094276,0.44345 z"
         style="font-style:normal;font-variant:normal;font-weight:bold;font-stretch:normal;font-size:3.5755136px;line-height:0.01;font-family:'DejaVu Sans Mono';-inkscape-font-specification:'DejaVu Sans Mono Bold';stroke-width:0.29795945"
         id="path882" />
      <path
         d="m 9.8556997,228.8767 q -0.1833149,0 -0.2880662,0.16237 -0.1047514,0.16061 -0.1047514,0.44868 0,0.28807 0.1047514,0.45043 0.1047513,0.16062 0.2880662,0.16062 0.1850613,0 0.2898123,-0.16062 0.104751,-0.16236 0.104751,-0.45043 0,-0.28807 -0.104751,-0.44868 -0.104751,-0.16237 -0.2898123,-0.16237 z m -0.9043535,0.61105 q 0,-0.47313 0.2444199,-0.74897 0.2461657,-0.27759 0.6599336,-0.27759 0.4155143,0 0.6599333,0.27759 0.246166,0.27584 0.246166,0.74897 0,0.47313 -0.246166,0.75072 -0.244419,0.27584 -0.6599333,0.27584 -0.4137679,0 -0.6599336,-0.27584 -0.2444199,-0.27759 -0.2444199,-0.75072 z"
         style="font-style:normal;font-variant:normal;font-weight:bold;font-stretch:normal;font-size:3.5755136px;line-height:0.01;font-family:'DejaVu Sans Mono';-inkscape-font-specification:'DejaVu Sans Mono Bold';stroke-width:0.29795945"
         id="path884" />
      <path
         d="m 12.135788,228.70386 q 0.05761,-0.12395 0.146652,-0.18331 0.08904,-0.0594 0.218232,-0.0594 0.253149,0 0.349171,0.17458 0.09777,0.17459 0.09777,0.72628 v 1.10163 h -0.419005 v -1.25527 q 0,-0.21823 -0.03317,-0.29155 -0.03317,-0.0733 -0.120464,-0.0733 -0.08729,0 -0.12221,0.0751 -0.03492,0.0751 -0.03492,0.28981 v 1.25527 h -0.413767 v -1.25527 q 0,-0.21474 -0.03492,-0.28981 -0.03492,-0.0751 -0.12221,-0.0751 -0.08729,0 -0.120464,0.0733 -0.03317,0.0733 -0.03317,0.29155 v 1.25527 h -0.419005 v -1.95535 h 0.371867 v 0.20251 q 0.04365,-0.11522 0.139669,-0.18156 0.09602,-0.0681 0.21474,-0.0681 0.118718,0 0.216486,0.0716 0.09777,0.0698 0.118718,0.17109 z"
         style="font-style:normal;font-variant:normal;font-weight:bold;font-stretch:normal;font-size:3.5755136px;line-height:0.01;font-family:'DejaVu Sans Mono';-inkscape-font-specification:'DejaVu Sans Mono Bold';stroke-width:0.29795945"
         id="path886" />
      <path
         d="m 1.9068163,232.54225 v 0.44694 q -0.1414143,-0.0908 -0.2950497,-0.13617 -0.1518895,-0.0471 -0.3055248,-0.0471 -0.1710939,0 -0.2583868,0.0506 -0.0872928,0.0489 -0.0872928,0.14665 0,0.13967 0.37361327,0.22696 l 0.019204,0.005 0.1466519,0.0349 q 0.279337,0.0663 0.4085304,0.21474 0.1309392,0.14665 0.1309392,0.39805 0,0.30203 -0.1990276,0.45392 -0.1972818,0.15015 -0.595337,0.15015 -0.1763315,0 -0.36139225,-0.0314 -0.18506076,-0.0297 -0.37535909,-0.0908 v -0.44694 q 0.16934806,0.096 0.34393368,0.14665 0.17633146,0.0506 0.34044196,0.0506 0.1798232,0 0.2723536,-0.0524 0.09253,-0.0524 0.09253,-0.15188 0,-0.0978 -0.066343,-0.15015 -0.064597,-0.0524 -0.3107624,-0.11173 l -0.1414143,-0.0314 q -0.29330389,-0.0663 -0.42773482,-0.20776 -0.13443093,-0.14141 -0.13443093,-0.37885 0,-0.28282 0.20426518,-0.43995 0.20426518,-0.15713 0.57438667,-0.15713 0.1658564,0 0.3299669,0.0279 0.1658563,0.0262 0.3212375,0.0803 z"
         style="font-style:normal;font-variant:normal;font-weight:bold;font-stretch:normal;font-size:3.5755136px;line-height:0.01;font-family:'DejaVu Sans Mono';-inkscape-font-specification:'DejaVu Sans Mono Bold';stroke-width:0.29795945"
         id="path888" />
      <path
         d="m 3.4030151,232.84952 q -0.1833149,0 -0.2880663,0.16237 -0.1047514,0.16062 -0.1047514,0.44868 0,0.28807 0.1047514,0.45044 0.1047514,0.16061 0.2880663,0.16061 0.1850608,0 0.2898121,-0.16061 0.1047514,-0.16237 0.1047514,-0.45044 0,-0.28806 -0.1047514,-0.44868 -0.1047513,-0.16237 -0.2898121,-0.16237 z m -0.9043535,0.61105 q 0,-0.47312 0.2444198,-0.74897 0.2461658,-0.27759 0.6599337,-0.27759 0.4155138,0 0.6599337,0.27759 0.2461657,0.27585 0.2461657,0.74897 0,0.47313 -0.2461657,0.75072 -0.2444199,0.27585 -0.6599337,0.27585 -0.4137679,0 -0.6599337,-0.27585 -0.2444198,-0.27759 -0.2444198,-0.75072 z"
         style="font-style:normal;font-variant:normal;font-weight:bold;font-stretch:normal;font-size:3.5755136px;line-height:0.01;font-family:'DejaVu Sans Mono';-inkscape-font-specification:'DejaVu Sans Mono Bold';stroke-width:0.29795945"
         id="path890" />
      <path
         d="m 4.7577995,233.75388 v -1.27273 h 0.5115359 v 1.19416 q 0,0.21125 0.059359,0.30204 0.059359,0.0908 0.1972818,0.0908 0.1379226,0 0.2147403,-0.12221 0.078564,-0.12221 0.078564,-0.34219 v -1.12258 H 6.330816 v 1.95536 H 5.8192801 v -0.28981 q -0.054121,0.16236 -0.1850607,0.2514 -0.1291934,0.089 -0.3125083,0.089 -0.279337,0 -0.4224972,-0.18506 -0.1414144,-0.18506 -0.1414144,-0.5482 z"
         style="font-style:normal;font-variant:normal;font-weight:bold;font-stretch:normal;font-size:3.5755136px;line-height:0.01;font-family:'DejaVu Sans Mono';-inkscape-font-specification:'DejaVu Sans Mono Bold';stroke-width:0.29795945"
         id="path892" />
      <path
         d="m 8.6388377,233.02062 q -0.083801,-0.0768 -0.1972817,-0.11523 -0.1117348,-0.0384 -0.2461658,-0.0384 -0.1623646,0 -0.2845745,0.0576 -0.1204641,0.0559 -0.1868067,0.16411 -0.0419,0.0663 -0.059359,0.16062 -0.015713,0.0943 -0.015713,0.28632 v 0.90086 H 7.1374013 v -1.95536 h 0.5115359 v 0.30378 q 0.075072,-0.1676 0.230453,-0.25839 0.1553813,-0.0925 0.3631381,-0.0925 0.1047514,0 0.2042652,0.0262 0.1012597,0.0244 0.1920442,0.0733 z"
         style="font-style:normal;font-variant:normal;font-weight:bold;font-stretch:normal;font-size:3.5755136px;line-height:0.01;font-family:'DejaVu Sans Mono';-inkscape-font-specification:'DejaVu Sans Mono Bold';stroke-width:0.29795945"
         id="path894" />
      <path
         d="m 10.632606,234.33699 q -0.129194,0.0751 -0.277591,0.11174 -0.148398,0.0384 -0.319492,0.0384 -0.4521768,0 -0.7070718,-0.27236 -0.2548951,-0.27235 -0.2548951,-0.75421 0,-0.4836 0.2566409,-0.75595 0.2566409,-0.2741 0.708818,-0.2741 0.157127,0 0.302033,0.0367 0.146652,0.0367 0.291558,0.11348 v 0.46789 q -0.111735,-0.096 -0.246166,-0.14665 -0.132685,-0.0524 -0.275845,-0.0524 -0.2496577,0 -0.3840886,0.15888 -0.134431,0.15887 -0.134431,0.45217 0,0.29331 0.134431,0.45044 0.1344309,0.15712 0.3840886,0.15712 0.148398,0 0.277591,-0.0489 0.129193,-0.0506 0.24442,-0.15189 z"
         style="font-style:normal;font-variant:normal;font-weight:bold;font-stretch:normal;font-size:3.5755136px;line-height:0.01;font-family:'DejaVu Sans Mono';-inkscape-font-specification:'DejaVu Sans Mono Bold';stroke-width:0.29795945"
         id="path896" />
      <path
         d="m 12.855081,234.34049 q -0.178077,0.0733 -0.363138,0.10998 -0.185061,0.0367 -0.391072,0.0367 -0.490586,0 -0.750718,-0.26188 -0.258387,-0.26362 -0.258387,-0.7577 0,-0.47837 0.249658,-0.75596 0.249657,-0.27759 0.680884,-0.27759 0.434718,0 0.6739,0.25839 0.240928,0.25664 0.240928,0.72453 v 0.20775 h -1.325105 q 0.0017,0.23046 0.136177,0.34394 0.134431,0.11348 0.401547,0.11348 0.176332,0 0.347425,-0.0506 0.171094,-0.0506 0.357901,-0.16062 z m -0.432972,-1.09989 q -0.0035,-0.20252 -0.104752,-0.30553 -0.09951,-0.10475 -0.295049,-0.10475 -0.176332,0 -0.281083,0.10824 -0.104752,0.1065 -0.123956,0.30378 z"
         style="font-style:normal;font-variant:normal;font-weight:bold;font-stretch:normal;font-size:3.5755136px;line-height:0.01;font-family:'DejaVu Sans Mono';-inkscape-font-specification:'DejaVu Sans Mono Bold';stroke-width:0.29795945"
         id="path898" />
    </g>
    <flowRoot
       xml:space="preserve"
       id="flowRoot864"
       style="fill:black;fill-opacity:1;stroke:none;font-family:sans-serif;font-style:normal;font-weight:normal;font-size:40px;line-height:1.25;letter-spacing:0px;word-spacing:0px"><flowRegion
         id="flowRegion866"><rect
           id="rect868"
           width="123.533"
           height="47.711498"
           x="55.011463"
           y="27.95311" /></flowRegion><flowPara
         id="flowPara870"></flowPara></flowRoot>  </g>
</svg>
