<?xml version="1.0" encoding="UTF-8" standalone="no"?>
<!-- Created with Inkscape (http://www.inkscape.org/) -->

<svg
   xmlns:osb="http://www.openswatchbook.org/uri/2009/osb"
   xmlns:dc="http://purl.org/dc/elements/1.1/"
   xmlns:cc="http://creativecommons.org/ns#"
   xmlns:rdf="http://www.w3.org/1999/02/22-rdf-syntax-ns#"
   xmlns:svg="http://www.w3.org/2000/svg"
   xmlns="http://www.w3.org/2000/svg"
   xmlns:xlink="http://www.w3.org/1999/xlink"
   xmlns:sodipodi="http://sodipodi.sourceforge.net/DTD/sodipodi-0.dtd"
   xmlns:inkscape="http://www.inkscape.org/namespaces/inkscape"
   width="60.472443"
   height="377.95276"
   viewBox="0 0 16 100"
   version="1.1"
   id="svg8"
   inkscape:version="0.92.2 (5c3e80d, 2017-08-06)"
   sodipodi:docname="Random Source.svg"
   inkscape:export-filename="C:\msys64\home\Studio\Rack\plugins\MS_modules\res\Random Source.png"
   inkscape:export-xdpi="100"
   inkscape:export-ydpi="100">
  <defs
     id="defs2">
    <linearGradient
       inkscape:collect="always"
       id="linearGradient970">
      <stop
         style="stop-color:#787878;stop-opacity:1"
         offset="0"
         id="stop966" />
      <stop
         style="stop-color:#626262;stop-opacity:0"
         offset="1"
         id="stop968" />
    </linearGradient>
    <linearGradient
       id="linearGradient2331"
       osb:paint="solid">
      <stop
         style="stop-color:#f2f2f2;stop-opacity:1;"
         offset="0"
         id="stop2329" />
    </linearGradient>
    <linearGradient
       inkscape:collect="always"
       xlink:href="#linearGradient970"
       id="linearGradient972"
       x1="49.811459"
       y1="294.27667"
       x2="49.811459"
       y2="194.08194"
       gradientUnits="userSpaceOnUse"
       gradientTransform="translate(-42.271035,2.7843397)" />
  </defs>
  <sodipodi:namedview
     id="base"
     pagecolor="#ffffff"
     bordercolor="#666666"
     borderopacity="1.0"
     inkscape:pageopacity="0.0"
     inkscape:pageshadow="2"
     inkscape:zoom="1.4142136"
     inkscape:cx="-98.294753"
     inkscape:cy="210.6554"
     inkscape:document-units="mm"
     inkscape:current-layer="layer1"
     showgrid="false"
     inkscape:window-width="1920"
     inkscape:window-height="1033"
     inkscape:window-x="-4"
     inkscape:window-y="-4"
     inkscape:window-maximized="1"
     showguides="true"
     inkscape:guide-bbox="true"
     units="px" />
  <metadata
     id="metadata5">
    <rdf:RDF>
      <cc:Work
         rdf:about="">
        <dc:format>image/svg+xml</dc:format>
        <dc:type
           rdf:resource="http://purl.org/dc/dcmitype/StillImage" />
        <dc:title />
      </cc:Work>
    </rdf:RDF>
  </metadata>
  <g
     inkscape:label="Ebene 1"
     inkscape:groupmode="layer"
     id="layer1"
     transform="translate(0,-197)">
    <path
       style="fill:#fafafa;fill-opacity:1;fill-rule:evenodd;stroke:none;stroke-width:0.06285989;stroke-miterlimit:4;stroke-dasharray:none;stroke-opacity:1"
       d="M -2.0290964e-4,196.99997 H 15.999797 v 100 H -2.0290964e-4 Z"
       id="rect817"
       inkscape:connector-curvature="0" />
    <path
       style="fill:url(#linearGradient972);fill-opacity:1;fill-rule:evenodd;stroke:none;stroke-width:0.06285989;stroke-miterlimit:4;stroke-dasharray:none;stroke-opacity:1"
       d="M -2.0290964e-4,196.99997 H 15.999797 v 100 H -2.0290964e-4 Z"
       id="rect817-9"
       inkscape:connector-curvature="0" />
    <flowRoot
       xml:space="preserve"
       id="flowRoot858"
       style="font-style:normal;font-weight:normal;font-size:40px;line-height:1.25;font-family:sans-serif;letter-spacing:0px;word-spacing:0px;fill:#000000;fill-opacity:1;stroke:none"><flowRegion
         id="flowRegion860"><rect
           id="rect862"
           width="29.5"
           height="176.5"
           x="-118.5"
           y="330.45276" /></flowRegion><flowPara
         id="flowPara864" /></flowRoot>    <flowRoot
       xml:space="preserve"
       id="flowRoot833"
       style="font-style:normal;font-weight:normal;font-size:40px;line-height:1.25;font-family:sans-serif;letter-spacing:0px;word-spacing:0px;fill:#000000;fill-opacity:1;stroke:none"><flowRegion
         id="flowRegion835"><rect
           id="rect837"
           width="101.99999"
           height="45.499996"
           x="-29.499998"
           y="71.452774" /></flowRegion><flowPara
         id="flowPara839" /></flowRoot>    <path
       style="fill:#d1936a;fill-opacity:1;fill-rule:evenodd;stroke:none;stroke-width:0.04346791;stroke-miterlimit:4;stroke-dasharray:none;stroke-opacity:1"
       d="m 4.2229102,209.77944 h 7.5549818 v 4.02351 H 4.2229102 Z"
       id="rect860-8-4-4-5"
       inkscape:connector-curvature="0" />
    <g
       aria-label="MS"
       style="font-style:normal;font-weight:normal;font-size:10.58333302px;line-height:1.25;font-family:sans-serif;letter-spacing:0px;word-spacing:0px;fill:#000003;fill-opacity:1;stroke:none;stroke-width:0.26458332"
       id="text881"
       transform="matrix(0.47216411,0,0,0.47216411,4.2239046,111.82185)">
      <path
         d="m 0.55186528,213.81201 v -5.78776 l 3.30729152,3.30729 1.6536457,-1.65364 h 1.6536458 v 5.78776 H 4.6859796 v -3.30729 l -0.8268228,0.82682 -0.8268229,-0.82682 v 1.65364 z m 0.82682292,-5.78776 0.8268228,0.82682 h 4.9609373 v -0.82682 z m -0.82682292,7.44141 v -0.82683 H 3.8591568 v 0.82683 z"
         style="font-style:normal;font-variant:normal;font-weight:normal;font-stretch:normal;font-size:8.46666622px;font-family:stoNe;-inkscape-font-specification:stoNe;fill:#000003;fill-opacity:1;stroke-width:0.26458332"
         id="path854"
         inkscape:connector-curvature="0" />
      <path
         d="m 7.9932711,213.81201 v -0.82682 h 4.1341139 q 0,-0.82682 -0.826822,-0.82682 H 7.9932711 v -0.82683 q 0,-1.65364 1.6536457,-1.65364 h 4.9609372 v 0.82682 h -3.307291 q -0.826823,0 -0.826823,0.82682 h 2.480468 q 1.653646,0 1.653646,1.65365 v 0.82682 z m 0.00413,0.82682 v 0.82683 h 7.4414059 v -0.82683 z m -0.830957,-6.61458 0.00413,0.82269 H 14.61198 l -0.0041,-0.82269 z"
         style="font-style:normal;font-variant:normal;font-weight:normal;font-stretch:normal;font-size:8.46666622px;font-family:stoNe;-inkscape-font-specification:stoNe;fill:#000003;fill-opacity:1;stroke-width:0.26458332"
         id="path856"
         inkscape:connector-curvature="0" />
    </g>
    <g
       aria-label="random source"
       transform="matrix(1.1880307,0,0,0.88798427,-0.02951637,0)"
       style="font-style:normal;font-weight:normal;font-size:11.91837883px;line-height:0.30000001;font-family:sans-serif;letter-spacing:0px;word-spacing:0px;fill:#000000;fill-opacity:1;stroke:none;stroke-width:0.29795945"
       id="text860">
      <path
         d="m 2.1861533,229.04779 q -0.083801,-0.0768 -0.1972817,-0.11522 -0.1117348,-0.0384 -0.2461658,-0.0384 -0.1623646,0 -0.2845745,0.0576 -0.1204641,0.0559 -0.1868067,0.16411 -0.041901,0.0663 -0.059359,0.16062 -0.015713,0.0943 -0.015713,0.28632 v 0.90086 H 0.68471694 v -1.95535 H 1.1962528 v 0.30377 q 0.075072,-0.1676 0.230453,-0.25838 0.1553813,-0.0925 0.3631381,-0.0925 0.1047514,0 0.2042652,0.0262 0.1012597,0.0245 0.1920442,0.0733 z"
         style="font-style:normal;font-variant:normal;font-weight:bold;font-stretch:normal;font-size:3.5755136px;line-height:0.01;font-family:'DejaVu Sans Mono';-inkscape-font-specification:'DejaVu Sans Mono Bold';fill:#000000;fill-opacity:1;stroke-width:0.29795945"
         id="path876"
         inkscape:connector-curvature="0" />
      <path
         d="m 3.549667,229.54536 q -0.2863204,0 -0.3998011,0.0733 -0.1134806,0.0733 -0.1134806,0.2514 0,0.13269 0.078564,0.21125 0.078564,0.0786 0.2129945,0.0786 0.2025193,0 0.3142541,-0.15189 0.1117348,-0.15364 0.1117348,-0.42774 v -0.0349 z m 0.7123094,-0.19728 v 1.1156 H 3.7539322 v -0.21823 q -0.09253,0.1292 -0.2374364,0.19903 -0.1449061,0.0698 -0.3194917,0.0698 -0.3334586,0 -0.5202652,-0.17633 -0.1850608,-0.17633 -0.1850608,-0.49233 0,-0.34219 0.2217238,-0.50455 0.2217237,-0.16411 0.6861215,-0.16411 h 0.3544088 v -0.0855 q 0,-0.12395 -0.090784,-0.18681 -0.089039,-0.0646 -0.2636243,-0.0646 -0.1833149,0 -0.3561547,0.0471 -0.1710939,0.0454 -0.3579005,0.14665 v -0.43647 q 0.169348,-0.0698 0.3439337,-0.103 0.1745856,-0.0332 0.3701215,-0.0332 0.4766187,0 0.6686629,0.19379 0.1937901,0.19379 0.1937901,0.6931 z"
         style="font-style:normal;font-variant:normal;font-weight:bold;font-stretch:normal;font-size:3.5755136px;line-height:0.01;font-family:'DejaVu Sans Mono';-inkscape-font-specification:'DejaVu Sans Mono Bold';fill:#000000;fill-opacity:1;stroke-width:0.29795945"
         id="path878"
         inkscape:connector-curvature="0" />
      <path
         d="m 6.3482746,229.19445 v 1.26923 H 5.8402304 v -1.19067 q 0,-0.21299 -0.061105,-0.30378 -0.059359,-0.0925 -0.1955359,-0.0925 -0.1379226,0 -0.218232,0.12396 -0.078563,0.12395 -0.078563,0.34393 v 1.11909 H 4.7787498 v -1.95535 H 5.286794 v 0.2933 q 0.054121,-0.16237 0.1850607,-0.2514 0.1309393,-0.089 0.316,-0.089 0.2775912,0 0.4190055,0.18506 0.1414144,0.18331 0.1414144,0.5482 z"
         style="font-style:normal;font-variant:normal;font-weight:bold;font-stretch:normal;font-size:3.5755136px;line-height:0.01;font-family:'DejaVu Sans Mono';-inkscape-font-specification:'DejaVu Sans Mono Bold';fill:#000000;fill-opacity:1;stroke-width:0.29795945"
         id="path880"
         inkscape:connector-curvature="0" />
      <path
         d="m 8.0103295,228.78592 v -1.03879 h 0.50979 v 2.71655 h -0.50979 v -0.28981 q -0.082055,0.16935 -0.2129945,0.2549 -0.1291934,0.0855 -0.3055248,0.0855 -0.3352044,0 -0.5202652,-0.26886 -0.1850608,-0.26886 -0.1850608,-0.7577 0,-0.49582 0.1868067,-0.76119 0.1885524,-0.26537 0.5359778,-0.26537 0.1571271,0 0.2810829,0.0821 0.1257016,0.0803 0.2199779,0.24268 z m -0.7123094,0.70532 q 0,0.28283 0.094276,0.44345 0.094276,0.16062 0.2601325,0.16062 0.1658564,0 0.2618785,-0.16062 0.096022,-0.16062 0.096022,-0.44345 0,-0.28283 -0.096022,-0.44345 -0.096022,-0.16061 -0.2618785,-0.16061 -0.1658563,0 -0.2601325,0.16061 -0.094276,0.16062 -0.094276,0.44345 z"
         style="font-style:normal;font-variant:normal;font-weight:bold;font-stretch:normal;font-size:3.5755136px;line-height:0.01;font-family:'DejaVu Sans Mono';-inkscape-font-specification:'DejaVu Sans Mono Bold';fill:#000000;fill-opacity:1;stroke-width:0.29795945"
         id="path882"
         inkscape:connector-curvature="0" />
      <path
         d="m 9.8556997,228.8767 q -0.1833149,0 -0.2880662,0.16237 -0.1047514,0.16061 -0.1047514,0.44868 0,0.28807 0.1047514,0.45043 0.1047513,0.16062 0.2880662,0.16062 0.1850613,0 0.2898123,-0.16062 0.104751,-0.16236 0.104751,-0.45043 0,-0.28807 -0.104751,-0.44868 -0.104751,-0.16237 -0.2898123,-0.16237 z m -0.9043535,0.61105 q 0,-0.47313 0.2444199,-0.74897 0.2461657,-0.27759 0.6599336,-0.27759 0.4155143,0 0.6599333,0.27759 0.246166,0.27584 0.246166,0.74897 0,0.47313 -0.246166,0.75072 -0.244419,0.27584 -0.6599333,0.27584 -0.4137679,0 -0.6599336,-0.27584 -0.2444199,-0.27759 -0.2444199,-0.75072 z"
         style="font-style:normal;font-variant:normal;font-weight:bold;font-stretch:normal;font-size:3.5755136px;line-height:0.01;font-family:'DejaVu Sans Mono';-inkscape-font-specification:'DejaVu Sans Mono Bold';fill:#000000;fill-opacity:1;stroke-width:0.29795945"
         id="path884"
         inkscape:connector-curvature="0" />
      <path
         d="m 12.135788,228.70386 q 0.05761,-0.12395 0.146652,-0.18331 0.08904,-0.0594 0.218232,-0.0594 0.253149,0 0.349171,0.17458 0.09777,0.17459 0.09777,0.72628 v 1.10163 h -0.419005 v -1.25527 q 0,-0.21823 -0.03317,-0.29155 -0.03317,-0.0733 -0.120464,-0.0733 -0.08729,0 -0.12221,0.0751 -0.03492,0.0751 -0.03492,0.28981 v 1.25527 h -0.413767 v -1.25527 q 0,-0.21474 -0.03492,-0.28981 -0.03492,-0.0751 -0.12221,-0.0751 -0.08729,0 -0.120464,0.0733 -0.03317,0.0733 -0.03317,0.29155 v 1.25527 h -0.419005 v -1.95535 h 0.371867 v 0.20251 q 0.04365,-0.11522 0.139669,-0.18156 0.09602,-0.0681 0.21474,-0.0681 0.118718,0 0.216486,0.0716 0.09777,0.0698 0.118718,0.17109 z"
         style="font-style:normal;font-variant:normal;font-weight:bold;font-stretch:normal;font-size:3.5755136px;line-height:0.01;font-family:'DejaVu Sans Mono';-inkscape-font-specification:'DejaVu Sans Mono Bold';fill:#000000;fill-opacity:1;stroke-width:0.29795945"
         id="path886"
         inkscape:connector-curvature="0" />
      <path
         d="m 1.9068163,232.54225 v 0.44694 q -0.1414143,-0.0908 -0.2950497,-0.13617 -0.1518895,-0.0471 -0.3055248,-0.0471 -0.1710939,0 -0.2583868,0.0506 -0.0872928,0.0489 -0.0872928,0.14665 0,0.13967 0.3736133,0.22696 l 0.019204,0.005 0.1466519,0.0349 q 0.279337,0.0663 0.4085304,0.21474 0.1309392,0.14665 0.1309392,0.39805 0,0.30203 -0.1990276,0.45392 -0.1972818,0.15015 -0.595337,0.15015 -0.1763315,0 -0.36139228,-0.0314 -0.18506076,-0.0297 -0.37535909,-0.0908 v -0.44694 q 0.16934806,0.096 0.34393368,0.14665 0.17633149,0.0506 0.34044199,0.0506 0.1798232,0 0.2723536,-0.0524 0.09253,-0.0524 0.09253,-0.15188 0,-0.0978 -0.066343,-0.15015 -0.064597,-0.0524 -0.3107624,-0.11173 l -0.1414143,-0.0314 q -0.29330392,-0.0663 -0.42773485,-0.20776 -0.13443093,-0.14141 -0.13443093,-0.37885 0,-0.28282 0.20426518,-0.43995 0.20426518,-0.15713 0.5743867,-0.15713 0.1658564,0 0.3299669,0.0279 0.1658563,0.0262 0.3212375,0.0803 z"
         style="font-style:normal;font-variant:normal;font-weight:bold;font-stretch:normal;font-size:3.5755136px;line-height:0.01;font-family:'DejaVu Sans Mono';-inkscape-font-specification:'DejaVu Sans Mono Bold';fill:#000000;fill-opacity:1;stroke-width:0.29795945"
         id="path888"
         inkscape:connector-curvature="0" />
      <path
         d="m 3.4030151,232.84952 q -0.1833149,0 -0.2880663,0.16237 -0.1047514,0.16062 -0.1047514,0.44868 0,0.28807 0.1047514,0.45044 0.1047514,0.16061 0.2880663,0.16061 0.1850608,0 0.2898121,-0.16061 0.1047514,-0.16237 0.1047514,-0.45044 0,-0.28806 -0.1047514,-0.44868 -0.1047513,-0.16237 -0.2898121,-0.16237 z m -0.9043535,0.61105 q 0,-0.47312 0.2444198,-0.74897 0.2461658,-0.27759 0.6599337,-0.27759 0.4155138,0 0.6599337,0.27759 0.2461657,0.27585 0.2461657,0.74897 0,0.47313 -0.2461657,0.75072 -0.2444199,0.27585 -0.6599337,0.27585 -0.4137679,0 -0.6599337,-0.27585 -0.2444198,-0.27759 -0.2444198,-0.75072 z"
         style="font-style:normal;font-variant:normal;font-weight:bold;font-stretch:normal;font-size:3.5755136px;line-height:0.01;font-family:'DejaVu Sans Mono';-inkscape-font-specification:'DejaVu Sans Mono Bold';fill:#000000;fill-opacity:1;stroke-width:0.29795945"
         id="path890"
         inkscape:connector-curvature="0" />
      <path
         d="m 4.7577995,233.75388 v -1.27273 h 0.5115359 v 1.19416 q 0,0.21125 0.059359,0.30204 0.059359,0.0908 0.1972818,0.0908 0.1379226,0 0.2147403,-0.12221 0.078564,-0.12221 0.078564,-0.34219 v -1.12258 H 6.330816 v 1.95536 H 5.8192801 v -0.28981 q -0.054121,0.16236 -0.1850607,0.2514 -0.1291934,0.089 -0.3125083,0.089 -0.279337,0 -0.4224972,-0.18506 -0.1414144,-0.18506 -0.1414144,-0.5482 z"
         style="font-style:normal;font-variant:normal;font-weight:bold;font-stretch:normal;font-size:3.5755136px;line-height:0.01;font-family:'DejaVu Sans Mono';-inkscape-font-specification:'DejaVu Sans Mono Bold';fill:#000000;fill-opacity:1;stroke-width:0.29795945"
         id="path892"
         inkscape:connector-curvature="0" />
      <path
         d="m 8.6388377,233.02062 q -0.083801,-0.0768 -0.1972817,-0.11523 -0.1117348,-0.0384 -0.2461658,-0.0384 -0.1623646,0 -0.2845745,0.0576 -0.1204641,0.0559 -0.1868067,0.16411 -0.0419,0.0663 -0.059359,0.16062 -0.015713,0.0943 -0.015713,0.28632 v 0.90086 H 7.1374013 v -1.95536 h 0.5115359 v 0.30378 q 0.075072,-0.1676 0.230453,-0.25839 0.1553813,-0.0925 0.3631381,-0.0925 0.1047514,0 0.2042652,0.0262 0.1012597,0.0244 0.1920442,0.0733 z"
         style="font-style:normal;font-variant:normal;font-weight:bold;font-stretch:normal;font-size:3.5755136px;line-height:0.01;font-family:'DejaVu Sans Mono';-inkscape-font-specification:'DejaVu Sans Mono Bold';fill:#000000;fill-opacity:1;stroke-width:0.29795945"
         id="path894"
         inkscape:connector-curvature="0" />
      <path
         d="m 10.632606,234.33699 q -0.129194,0.0751 -0.277591,0.11174 -0.148398,0.0384 -0.319492,0.0384 -0.4521768,0 -0.7070718,-0.27236 -0.2548951,-0.27235 -0.2548951,-0.75421 0,-0.4836 0.2566409,-0.75595 0.2566409,-0.2741 0.708818,-0.2741 0.157127,0 0.302033,0.0367 0.146652,0.0367 0.291558,0.11348 v 0.46789 q -0.111735,-0.096 -0.246166,-0.14665 -0.132685,-0.0524 -0.275845,-0.0524 -0.2496577,0 -0.3840886,0.15888 -0.134431,0.15887 -0.134431,0.45217 0,0.29331 0.134431,0.45044 0.1344309,0.15712 0.3840886,0.15712 0.148398,0 0.277591,-0.0489 0.129193,-0.0506 0.24442,-0.15189 z"
         style="font-style:normal;font-variant:normal;font-weight:bold;font-stretch:normal;font-size:3.5755136px;line-height:0.01;font-family:'DejaVu Sans Mono';-inkscape-font-specification:'DejaVu Sans Mono Bold';fill:#000000;fill-opacity:1;stroke-width:0.29795945"
         id="path896"
         inkscape:connector-curvature="0" />
      <path
         d="m 12.855081,234.34049 q -0.178077,0.0733 -0.363138,0.10998 -0.185061,0.0367 -0.391072,0.0367 -0.490586,0 -0.750718,-0.26188 -0.258387,-0.26362 -0.258387,-0.7577 0,-0.47837 0.249658,-0.75596 0.249657,-0.27759 0.680884,-0.27759 0.434718,0 0.6739,0.25839 0.240928,0.25664 0.240928,0.72453 v 0.20775 h -1.325105 q 0.0017,0.23046 0.136177,0.34394 0.134431,0.11348 0.401547,0.11348 0.176332,0 0.347425,-0.0506 0.171094,-0.0506 0.357901,-0.16062 z m -0.432972,-1.09989 q -0.0035,-0.20252 -0.104752,-0.30553 -0.09951,-0.10475 -0.295049,-0.10475 -0.176332,0 -0.281083,0.10824 -0.104752,0.1065 -0.123956,0.30378 z"
         style="font-style:normal;font-variant:normal;font-weight:bold;font-stretch:normal;font-size:3.5755136px;line-height:0.01;font-family:'DejaVu Sans Mono';-inkscape-font-specification:'DejaVu Sans Mono Bold';fill:#000000;fill-opacity:1;stroke-width:0.29795945"
         id="path898"
         inkscape:connector-curvature="0" />
    </g>
    <flowRoot
       xml:space="preserve"
       id="flowRoot864"
       style="font-style:normal;font-weight:normal;font-size:40px;line-height:1.25;font-family:sans-serif;letter-spacing:0px;word-spacing:0px;fill:#000000;fill-opacity:1;stroke:none"><flowRegion
         id="flowRegion866"><rect
           id="rect868"
           width="123.533"
           height="47.711498"
           x="55.011463"
           y="27.95311" /></flowRegion><flowPara
         id="flowPara870" /></flowRoot>    <path
       style="opacity:1;fill:#0198ad;fill-opacity:1;fill-rule:evenodd;stroke:none;stroke-width:0.17860486;stroke-miterlimit:4;stroke-dasharray:none;stroke-opacity:1"
       d="M 1.0252043e-4,270.13218 H 15.998785 v 9.65729 H 1.0252043e-4 Z"
       id="rect860-8"
       inkscape:connector-curvature="0" />
    <path
       style="opacity:1;fill:#41a8ff;fill-opacity:1;fill-rule:evenodd;stroke:none;stroke-width:0.17860486;stroke-miterlimit:4;stroke-dasharray:none;stroke-opacity:1"
       d="M 1.0071236e-4,258.06476 H 15.998786 v 9.65729 H 1.0071236e-4 Z"
       id="rect860-8-4"
       inkscape:connector-curvature="0" />
    <g
       aria-label="IN "
       style="font-style:normal;font-weight:normal;font-size:3.52777767px;line-height:1.25;font-family:sans-serif;text-align:center;letter-spacing:0px;word-spacing:0px;text-anchor:middle;fill:#000000;fill-opacity:1;stroke:none;stroke-width:0.26458332"
       id="text850-6-8-2-2"
       transform="matrix(1.3500374,0,0,1.3500374,-9.0160879,-74.984708)">
      <path
         d="m 7.2266905,249.71581 v -0.22394 H 7.992363 v 0.22394 H 7.7365646 v 0.83801 H 7.992363 v 0.22394 H 7.2266905 v -0.22394 h 0.2557984 v -0.83801 z"
         style="font-style:normal;font-variant:normal;font-weight:bold;font-stretch:normal;font-size:1.76388884px;font-family:'DejaVu Sans Mono';-inkscape-font-specification:'DejaVu Sans Mono Bold';text-align:center;text-anchor:middle;fill:#000000;fill-opacity:1;stroke-width:0.26458332"
         id="path895-8"
         inkscape:connector-curvature="0" />
      <path
         d="m 8.2421324,249.49187 h 0.2730238 l 0.3582899,0.93449 v -0.93449 h 0.2239312 v 1.28589 H 8.8260761 l -0.3600125,-0.93449 v 0.93449 H 8.2421324 Z"
         style="font-style:normal;font-variant:normal;font-weight:bold;font-stretch:normal;font-size:1.76388884px;font-family:'DejaVu Sans Mono';-inkscape-font-specification:'DejaVu Sans Mono Bold';text-align:center;text-anchor:middle;fill:#000000;fill-opacity:1;stroke-width:0.26458332"
         id="path897-2"
         inkscape:connector-curvature="0" />
    </g>
    <path
       style="opacity:0.64;fill:#1312bf;fill-opacity:1;fill-rule:evenodd;stroke:none;stroke-width:0.1786062;stroke-miterlimit:4;stroke-dasharray:none;stroke-opacity:1"
       d="M -3.1890435e-4,282.18393 H 15.998602 v 9.65729 H -3.1890435e-4 Z"
       id="rect860"
       inkscape:connector-curvature="0" />
    <g
       aria-label="OUT"
       style="font-style:normal;font-weight:normal;font-size:10.58333302px;line-height:1.25;font-family:sans-serif;letter-spacing:0px;word-spacing:0px;fill:#000000;fill-opacity:1;stroke:none;stroke-width:0.26458332"
       id="text885-9"
       transform="translate(-5.1819059,11.693264)">
      <path
         d="m 6.5535155,274.71092 q -0.1362536,0 -0.1989543,0.1459 -0.062701,0.1447 -0.062701,0.46905 0,0.32315 0.062701,0.46905 0.062701,0.1447 0.1989543,0.1447 0.1374593,0 0.20016,-0.1447 0.062701,-0.1459 0.062701,-0.46905 0,-0.32435 -0.062701,-0.46905 -0.062701,-0.1459 -0.20016,-0.1459 z m -0.6318306,0.61495 q 0,-0.46181 0.1591635,-0.69815 0.1603692,-0.23633 0.4726671,-0.23633 0.3135037,0 0.4726671,0.23633 0.1603692,0.23634 0.1603692,0.69815 0,0.46061 -0.1603692,0.69695 -0.1591634,0.23633 -0.4726671,0.23633 -0.3122979,0 -0.4726671,-0.23633 -0.1591635,-0.23634 -0.1591635,-0.69695 z"
         style="font-style:normal;font-variant:normal;font-weight:bold;font-stretch:normal;font-size:2.46944451px;font-family:'DejaVu Sans Mono';-inkscape-font-specification:'DejaVu Sans Mono Bold';fill:#000000;fill-opacity:1;stroke-width:0.26458332"
         id="path887-1"
         inkscape:connector-curvature="0" />
      <path
         d="m 7.4240912,275.5598 v -1.13585 h 0.3557061 v 1.22507 q 0,0.13505 0.06873,0.21222 0.06873,0.076 0.1905138,0.076 0.1217842,0 0.1905138,-0.076 0.06873,-0.0772 0.06873,-0.21222 v -1.22507 H 8.653991 v 1.13585 q 0,0.36655 -0.1458998,0.53295 -0.1458998,0.1664 -0.4690498,0.1664 -0.3219442,0 -0.4690497,-0.1664 -0.1458998,-0.1664 -0.1459005,-0.53295 z"
         style="font-style:normal;font-variant:normal;font-weight:bold;font-stretch:normal;font-size:2.46944451px;font-family:'DejaVu Sans Mono';-inkscape-font-specification:'DejaVu Sans Mono Bold';fill:#000000;fill-opacity:1;stroke-width:0.26458332"
         id="path889-1"
         inkscape:connector-curvature="0" />
      <path
         d="M 9.7030219,276.22418 H 9.3473158 v -1.48914 H 8.8903239 v -0.31109 h 1.2696901 v 0.31109 H 9.7030219 Z"
         style="font-style:normal;font-variant:normal;font-weight:bold;font-stretch:normal;font-size:2.46944451px;font-family:'DejaVu Sans Mono';-inkscape-font-specification:'DejaVu Sans Mono Bold';fill:#000000;fill-opacity:1;stroke-width:0.26458332"
         id="path891-9"
         inkscape:connector-curvature="0" />
    </g>
    <g
       aria-label="Sample"
       transform="matrix(1.0076253,0,0,0.99243238,0,-2.5796875)"
       style="font-style:normal;font-weight:normal;font-size:10.66403389px;line-height:1.25;font-family:sans-serif;letter-spacing:0px;word-spacing:0px;fill:#000000;fill-opacity:1;stroke:none;stroke-width:0.26660085"
       id="text921">
      <path
         d="m 3.4832903,223.06192 q -0.3096458,-0.11802 -0.419341,-0.24716 -0.1096951,-0.13052 -0.1096951,-0.34991 0,-0.28188 0.180511,-0.44295 0.180511,-0.16107 0.495711,-0.16107 0.1430202,0 0.2860405,0.0333 0.1430202,0.0319 0.2832634,0.0958 v 0.39991 q -0.1319119,-0.093 -0.2679894,-0.14164 -0.1360775,-0.0486 -0.269378,-0.0486 -0.1485744,0 -0.2277216,0.0597 -0.079147,0.0597 -0.079147,0.17079 0,0.0861 0.05693,0.14302 0.058319,0.0556 0.241607,0.12358 l 0.1763454,0.0667 q 0.2499383,0.0916 0.3679648,0.24299 0.1180264,0.15135 0.1180264,0.38185 0,0.31381 -0.1860652,0.46933 -0.1846767,0.15413 -0.5595841,0.15413 -0.1541287,0 -0.3096458,-0.0375 -0.1541287,-0.0361 -0.2985375,-0.10831 v -0.42351 q 0.1638485,0.11664 0.3165886,0.17357 0.1541286,0.0569 0.3040916,0.0569 0.1513515,0 0.2346643,-0.068 0.083313,-0.0694 0.083313,-0.193 0,-0.093 -0.055542,-0.16246 -0.055542,-0.0708 -0.1610713,-0.11109 z"
         style="font-style:normal;font-variant:normal;font-weight:bold;font-stretch:normal;font-size:2.84374261px;font-family:'DejaVu Sans Mono';-inkscape-font-specification:'DejaVu Sans Mono Bold';stroke-width:0.26660085"
         id="path938"
         inkscape:connector-curvature="0" />
      <path
         d="m 5.457803,223.24104 q -0.2277216,0 -0.3179771,0.0583 -0.090255,0.0583 -0.090255,0.19995 0,0.10553 0.062485,0.16802 0.062485,0.0625 0.1694026,0.0625 0.1610714,0 0.2499383,-0.1208 0.088867,-0.12219 0.088867,-0.34019 v -0.0278 z m 0.5665268,-0.1569 v 0.88728 H 5.6202629 v -0.17357 q -0.073593,0.10275 -0.1888423,0.1583 -0.1152493,0.0555 -0.2541039,0.0555 -0.2652124,0 -0.4137868,-0.14025 -0.1471859,-0.14024 -0.1471859,-0.39157 0,-0.27215 0.1763454,-0.40128 0.1763453,-0.13053 0.5456986,-0.13053 h 0.2818749 v -0.068 q 0,-0.0986 -0.072204,-0.14857 -0.070816,-0.0514 -0.2096705,-0.0514 -0.1457973,0 -0.2832634,0.0375 -0.1360775,0.0361 -0.284652,0.11664 v -0.34714 q 0.134689,-0.0555 0.2735436,-0.0819 0.1388546,-0.0264 0.2943718,-0.0264 0.3790731,0 0.5318132,0.15413 0.1541286,0.15413 0.1541286,0.55125 z"
         style="font-style:normal;font-variant:normal;font-weight:bold;font-stretch:normal;font-size:2.84374261px;font-family:'DejaVu Sans Mono';-inkscape-font-specification:'DejaVu Sans Mono Bold';stroke-width:0.26660085"
         id="path940"
         inkscape:connector-curvature="0" />
      <path
         d="m 7.1546065,222.57177 q 0.045822,-0.0986 0.1166379,-0.1458 0.070816,-0.0472 0.1735682,-0.0472 0.2013392,0 0.2777093,0.13885 0.077759,0.13886 0.077759,0.57764 v 0.87617 H 7.4670294 v -0.99836 q 0,-0.17357 -0.026382,-0.23189 -0.026382,-0.0583 -0.09581,-0.0583 -0.069427,0 -0.097198,0.0597 -0.027771,0.0597 -0.027771,0.2305 v 0.99836 H 6.8907827 v -0.99836 q 0,-0.1708 -0.027771,-0.2305 -0.027771,-0.0597 -0.097198,-0.0597 -0.069427,0 -0.09581,0.0583 -0.026382,0.0583 -0.026382,0.23189 v 0.99836 H 6.3103704 v -1.55517 h 0.2957603 v 0.16107 q 0.034714,-0.0916 0.1110837,-0.14441 0.07637,-0.0541 0.1707912,-0.0541 0.094421,0 0.1721797,0.0569 0.077759,0.0555 0.094421,0.13608 z"
         style="font-style:normal;font-variant:normal;font-weight:bold;font-stretch:normal;font-size:2.84374261px;font-family:'DejaVu Sans Mono';-inkscape-font-specification:'DejaVu Sans Mono Bold';stroke-width:0.26660085"
         id="path942"
         inkscape:connector-curvature="0" />
      <path
         d="m 8.5209358,223.75203 v 0.81091 H 8.1154804 v -2.14669 h 0.4054554 v 0.23327 q 0.063873,-0.13468 0.1680141,-0.20272 0.104141,-0.068 0.2443842,-0.068 0.2666008,0 0.4137867,0.21383 0.1471859,0.21384 0.1471859,0.60263 0,0.39435 -0.149963,0.60541 -0.1485744,0.21106 -0.4248951,0.21106 -0.1249692,0 -0.2249445,-0.0639 -0.098587,-0.0653 -0.1735683,-0.19579 z m 0.5665269,-0.55958 q 0,-0.22495 -0.074981,-0.35269 -0.074981,-0.12775 -0.2068934,-0.12775 -0.1319119,0 -0.2082819,0.12775 -0.07637,0.12774 -0.07637,0.35269 0,0.22494 0.07637,0.35269 0.07637,0.12774 0.2082819,0.12774 0.1319119,0 0.2068934,-0.12774 0.074981,-0.12775 0.074981,-0.35269 z"
         style="font-style:normal;font-variant:normal;font-weight:bold;font-stretch:normal;font-size:2.84374261px;font-family:'DejaVu Sans Mono';-inkscape-font-specification:'DejaVu Sans Mono Bold';stroke-width:0.26660085"
         id="path944"
         inkscape:connector-curvature="0" />
      <path
         d="m 10.155255,223.32297 v -1.1997 H 9.7428567 v -0.31243 h 0.8192423 v 1.51213 q 0,0.18329 0.05693,0.25966 0.05693,0.0764 0.193008,0.0764 h 0.32492 v 0.31242 h -0.438781 q -0.290206,0 -0.416563,-0.14996 -0.126358,-0.14997 -0.126358,-0.49849 z"
         style="font-style:normal;font-variant:normal;font-weight:bold;font-stretch:normal;font-size:2.84374261px;font-family:'DejaVu Sans Mono';-inkscape-font-specification:'DejaVu Sans Mono Bold';stroke-width:0.26660085"
         id="path946"
         inkscape:connector-curvature="0" />
      <path
         d="m 12.858754,223.89505 q -0.141631,0.0583 -0.288817,0.0875 -0.147186,0.0292 -0.311034,0.0292 -0.390182,0 -0.597075,-0.20828 -0.205505,-0.20967 -0.205505,-0.60263 0,-0.38046 0.198562,-0.60124 0.198562,-0.22078 0.541533,-0.22078 0.345748,0 0.535979,0.2055 0.191619,0.20412 0.191619,0.57625 v 0.16524 H 11.87011 q 0.0014,0.18328 0.108306,0.27354 0.106918,0.0903 0.319366,0.0903 0.140243,0 0.276321,-0.0403 0.136077,-0.0403 0.284651,-0.12775 z m -0.344359,-0.87478 q -0.0028,-0.16108 -0.08331,-0.243 -0.07915,-0.0833 -0.234664,-0.0833 -0.140243,0 -0.223556,0.0861 -0.08331,0.0847 -0.09859,0.2416 z"
         style="font-style:normal;font-variant:normal;font-weight:bold;font-stretch:normal;font-size:2.84374261px;font-family:'DejaVu Sans Mono';-inkscape-font-specification:'DejaVu Sans Mono Bold';stroke-width:0.26660085"
         id="path948"
         inkscape:connector-curvature="0" />
    </g>
    <g
       aria-label="CLK"
       transform="matrix(0.99760475,0,0,1.002401,0,6.3500003)"
       style="font-style:normal;font-weight:normal;font-size:2.34100199px;line-height:1.25;font-family:sans-serif;letter-spacing:0px;word-spacing:0px;fill:#000000;fill-opacity:1;stroke:none;stroke-width:0.25082162"
       id="text958">
      <path
         d="m 1.8085369,268.71098 q -0.080015,0.0412 -0.1680309,0.0617 -0.088016,0.0206 -0.1851769,0.0206 -0.3452063,0 -0.52695404,-0.22747 -0.18174772,-0.22747 -0.18174772,-0.65726 0,-0.43094 0.18174772,-0.65841 0.18174774,-0.22747 0.52695404,-0.22747 0.097161,0 0.18632,0.0206 0.089159,0.0206 0.1668878,0.0617 v 0.37493 q -0.086873,-0.08 -0.1691739,-0.1166 -0.081158,-0.0377 -0.1680309,-0.0377 -0.185177,0 -0.2800515,0.14746 -0.093732,0.14631 -0.093732,0.43551 0,0.28805 0.093732,0.43551 0.094874,0.14631 0.2800515,0.14631 0.086873,0 0.1680309,-0.0366 0.082301,-0.0377 0.1691739,-0.11774 z"
         style="font-style:normal;font-variant:normal;font-weight:bold;font-stretch:normal;font-size:2.34100199px;font-family:'DejaVu Sans Mono';-inkscape-font-specification:'DejaVu Sans Mono Bold';fill:#000000;fill-opacity:1;stroke-width:0.25082162"
         id="path960"
         inkscape:connector-curvature="0" />
      <path
         d="m 2.2383303,268.76013 v -1.7066 h 0.3372049 v 1.4094 h 0.7212755 v 0.2972 z"
         style="font-style:normal;font-variant:normal;font-weight:bold;font-stretch:normal;font-size:2.34100199px;font-family:'DejaVu Sans Mono';-inkscape-font-specification:'DejaVu Sans Mono Bold';fill:#000000;fill-opacity:1;stroke-width:0.25082162"
         id="path962"
         inkscape:connector-curvature="0" />
      <path
         d="m 3.5231381,267.05353 h 0.3372048 v 0.67441 l 0.5280972,-0.67441 h 0.3817845 l -0.5383848,0.67213 0.5578169,1.03447 H 4.4147306 l -0.4046458,-0.76814 -0.1497419,0.18975 v 0.57839 H 3.5231381 Z"
         style="font-style:normal;font-variant:normal;font-weight:bold;font-stretch:normal;font-size:2.34100199px;font-family:'DejaVu Sans Mono';-inkscape-font-specification:'DejaVu Sans Mono Bold';fill:#000000;fill-opacity:1;stroke-width:0.25082162"
         id="path964"
         inkscape:connector-curvature="0" />
    </g>
    <path
       style="opacity:1;fill:#3489d0;fill-opacity:0.9399128;fill-rule:evenodd;stroke:#000000;stroke-width:0.18000001;stroke-miterlimit:4;stroke-dasharray:none;stroke-opacity:1"
       d="m 9.9377353,239.34846 a 1.9405922,1.9405922 0 0 1 -1.9405921,1.9406 1.9405922,1.9405922 0 0 1 -1.9405908,-1.9406 1.9405922,1.9405922 0 0 1 1.9405908,-1.94059 1.9405922,1.9405922 0 0 1 1.9405921,1.94059 z"
       id="path870"
       inkscape:connector-curvature="0" />
    <path
       style="fill:none;stroke:#000000;stroke-width:0.28417397px;stroke-linecap:butt;stroke-linejoin:miter;stroke-opacity:1"
       d="M 0.7864135,202.14684 H 15.436742"
       id="path901"
       inkscape:connector-curvature="0" />
  </g>
</svg>
